<?xml version="1.0" standalone="no"?>
<!DOCTYPE svg PUBLIC "-//W3C//DTD SVG 20010904//EN"
 "http://www.w3.org/TR/2001/REC-SVG-20010904/DTD/svg10.dtd">
<svg version="1.0" xmlns="http://www.w3.org/2000/svg"
 width="1120.000000pt" height="1120.000000pt" viewBox="0 0 1120.000000 1120.000000"
 preserveAspectRatio="xMidYMid meet">
<metadata>
Created by potrace 1.14, written by Peter Selinger 2001-2017
</metadata>
<g transform="translate(0.000000,1120.000000) scale(0.100000,-0.100000)"
fill="#000000" stroke="none">
<path d="M4320 8757 c-13 -17 -28 -36 -32 -42 -53 -66 -88 -115 -88 -123 0 -6
-3 -12 -7 -14 -5 -1 -37 -61 -73 -133 -36 -71 -67 -132 -70 -135 -3 -3 -27
-50 -55 -105 -27 -55 -64 -126 -82 -158 -18 -33 -33 -65 -33 -72 0 -7 -3 -15
-7 -17 -5 -1 -36 -57 -69 -123 -34 -66 -76 -147 -93 -180 -17 -33 -31 -65 -31
-71 0 -7 -4 -14 -8 -16 -5 -1 -27 -39 -49 -83 -123 -242 -164 -319 -174 -331
-6 -8 -9 -14 -5 -14 3 0 -4 -17 -16 -37 -13 -21 -48 -87 -78 -148 -30 -60 -57
-112 -60 -115 -3 -3 -29 -52 -58 -110 -52 -104 -178 -347 -346 -672 l-86 -167
32 -37 c18 -21 51 -56 73 -79 22 -24 60 -63 84 -89 l43 -46 -6 -107 c-20 -315
-26 -404 -41 -608 -4 -44 -8 -111 -11 -150 -2 -38 -6 -101 -8 -140 -15 -219
-19 -281 -19 -292 0 -7 -3 -13 -6 -14 -3 0 -42 -2 -86 -3 -44 -2 -100 -9 -125
-16 -25 -7 -49 -13 -55 -15 -39 -9 -161 -70 -182 -91 -8 -8 -18 -14 -22 -14
-11 0 -136 -121 -169 -165 -33 -45 -115 -195 -106 -195 4 0 2 -6 -4 -12 -25
-32 -46 -155 -45 -268 1 -63 3 -122 5 -130 3 -8 10 -35 17 -60 21 -74 82 -179
135 -235 96 -98 209 -154 344 -171 37 -5 37 -5 105 -65 53 -47 88 -100 119
-182 22 -59 22 -55 43 -156 25 -115 49 -139 145 -148 75 -6 77 -1 52 129 -32
160 -32 159 -38 203 -18 122 -2 270 33 325 9 14 44 51 78 82 291 269 345 712
119 986 -36 45 -43 59 -39 85 3 18 7 82 10 142 5 113 10 196 19 345 3 47 8
130 11 185 6 109 11 185 19 315 4 47 8 126 11 175 6 94 11 192 20 335 3 47 7
101 9 120 3 25 250 775 342 1040 3 8 5 17 6 20 0 4 9 30 34 95 4 11 9 29 11
39 2 11 8 25 14 33 6 7 8 13 5 13 -4 0 -2 9 4 21 7 11 14 32 16 46 3 14 12 39
20 54 8 16 13 29 10 29 -2 0 7 30 21 68 14 37 27 76 30 87 3 11 7 27 11 35 3
8 6 17 7 20 1 3 4 12 8 20 7 19 71 213 73 223 1 4 2 8 3 10 7 12 370 1102 367
1104 -1 1 -13 -12 -26 -30z m-1126 -2739 c24 -27 28 -36 23 -72 -10 -70 -85
-109 -147 -76 -66 35 -57 145 13 175 42 18 76 10 111 -27z m-224 -1893 c43 -8
127 -55 160 -88 100 -99 142 -240 118 -396 -5 -31 -11 -63 -15 -71 -3 -8 -7
-22 -9 -30 -10 -50 -85 -170 -145 -231 -193 -197 -464 -223 -627 -61 -175 174
-152 502 50 713 137 143 296 199 468 164z"/>
<path d="M7199 8486 c-4 -4 -31 -8 -144 -21 -113 -13 -135 -14 -242 -15 -113
-1 -113 -1 -113 -26 0 -19 5 -24 28 -25 15 0 65 -1 112 -2 l85 -2 1 -1052 1
-1053 -61 -1 c-34 0 -80 0 -103 1 -33 1 -43 -2 -43 -14 0 -9 0 -19 0 -23 0 -5
11 -8 23 -9 13 -1 29 -4 35 -8 6 -3 13 -2 17 3 3 6 15 7 28 2 12 -5 31 -5 42
-1 11 4 24 5 28 3 5 -3 55 -5 110 -4 56 1 108 1 115 1 25 0 48 0 96 0 27 0 51
-2 54 -4 2 -3 15 -1 28 4 14 6 26 6 29 -1 4 -5 13 -6 22 0 9 5 29 5 44 1 30
-9 44 6 33 35 -5 11 -26 14 -107 13 l-102 -2 0 375 c1 206 4 401 8 434 7 55
10 71 21 130 23 113 68 249 90 274 9 10 16 22 16 27 0 12 53 68 96 100 45 35
131 61 191 59 142 -5 225 -89 250 -250 2 -16 7 -41 10 -55 3 -14 8 -265 10
-557 l5 -533 -74 -1 c-40 -1 -88 0 -105 1 -29 1 -33 -1 -33 -25 0 -14 4 -24 9
-20 5 3 12 1 15 -4 4 -6 18 -6 36 -1 17 5 30 5 30 1 0 -4 20 -5 45 -1 25 4 45
4 45 1 0 -3 42 -5 92 -3 51 2 99 3 106 2 21 0 45 0 96 0 27 0 51 -2 54 -4 2
-3 14 -1 27 4 13 5 26 6 29 3 8 -8 101 -7 115 1 5 4 9 15 8 26 -1 17 -9 19
-87 19 -47 0 -94 0 -105 0 -20 1 -20 8 -20 474 0 388 -2 491 -16 577 -36 229
-109 345 -256 403 -121 47 -310 41 -423 -15 -105 -52 -194 -142 -237 -239 -12
-26 -26 -50 -32 -53 -8 -5 -11 136 -11 523 0 292 -4 531 -8 531 -5 0 -11 -2
-13 -4z"/>
<path d="M9997 8484 c-4 -4 -52 -12 -122 -20 -95 -10 -123 -12 -240 -14 -101
-2 -111 -4 -112 -21 -1 -10 2 -21 6 -23 4 -3 56 -6 115 -7 l106 -1 0 -1054 0
-1054 -32 -1 c-18 0 -65 0 -105 0 -58 0 -72 -4 -75 -17 -8 -29 2 -42 25 -34
26 9 80 8 95 -2 6 -3 13 -2 17 3 3 6 15 7 28 2 12 -5 31 -5 42 -1 11 4 24 5
28 3 5 -3 55 -5 110 -4 56 1 108 1 115 1 25 0 48 0 96 0 27 0 51 -2 54 -4 2
-3 14 -1 27 4 13 5 26 5 32 -1 14 -14 45 13 38 34 -6 14 -21 17 -109 15 l-101
-2 0 373 c0 241 3 375 10 381 5 4 28 10 50 14 22 3 51 8 65 11 49 12 143 12
179 1 71 -21 134 -111 157 -221 3 -16 8 -115 10 -220 5 -207 17 -275 61 -333
48 -64 128 -97 223 -92 30 1 62 2 70 2 8 0 34 5 56 10 32 8 41 14 37 27 -4 15
-13 17 -49 13 -39 -3 -48 0 -69 22 -14 15 -25 30 -26 34 0 4 -3 16 -6 27 -2
11 -6 99 -8 195 -4 205 -16 305 -46 386 -46 122 -163 193 -326 197 -36 1 -27
11 30 36 172 74 268 201 269 356 1 110 -49 199 -136 244 -92 47 -221 30 -295
-40 -92 -87 -68 -260 42 -309 120 -53 254 33 240 154 -6 53 -25 82 -70 104
-56 27 -51 65 8 58 40 -5 52 -10 73 -28 11 -10 23 -18 26 -18 4 0 17 -21 30
-47 32 -63 35 -158 8 -222 -32 -79 -127 -166 -218 -201 -19 -7 -39 -17 -45
-21 -8 -6 -73 -25 -150 -45 -44 -11 -168 -34 -183 -34 -16 0 -17 51 -17 678 1
372 -1 684 -3 693 -3 13 -26 22 -35 13z"/>
<path d="M8885 8373 c-79 -27 -126 -100 -121 -188 7 -116 90 -186 207 -172 56
7 84 21 121 62 25 28 31 42 42 101 8 41 -15 111 -46 143 -60 61 -129 80 -203
54z"/>
<path d="M5875 7768 c-104 -15 -166 -34 -235 -71 -52 -28 -136 -95 -154 -121
-8 -13 -22 -30 -30 -39 -9 -8 -27 -36 -41 -63 -14 -26 -29 -52 -33 -58 -10
-14 -26 -63 -47 -141 -27 -100 -33 -147 -34 -271 l-1 -81 -42 -13 c-24 -8 -45
-14 -48 -15 -3 0 -36 -11 -75 -24 -38 -13 -74 -24 -80 -26 -5 -1 -17 -5 -25
-8 -15 -6 -371 -120 -380 -123 -3 0 -12 -3 -20 -6 -39 -15 -237 -79 -255 -83
-11 -2 -36 -9 -55 -16 -40 -14 -53 -17 -61 -15 -3 0 -13 -5 -22 -13 -10 -7
-17 -10 -17 -6 0 4 -7 2 -15 -5 -8 -7 -15 -10 -15 -6 0 3 -21 -3 -47 -13 -27
-10 -52 -20 -58 -21 -5 -1 -14 -4 -20 -6 -210 -66 -363 -117 -374 -123 -8 -4
-19 -21 -24 -37 -5 -16 -11 -36 -14 -44 -3 -8 -7 -19 -9 -25 -1 -5 -34 -103
-72 -217 -39 -115 -69 -208 -67 -208 3 0 367 178 831 406 94 46 176 84 182 84
7 0 12 3 12 8 0 4 15 13 33 21 32 14 541 262 671 327 38 19 74 33 80 31 6 -3
12 -17 14 -32 5 -58 77 -229 122 -290 8 -11 43 -48 78 -83 82 -84 191 -136
320 -155 248 -37 423 28 556 207 51 67 106 194 120 274 5 30 4 32 -23 32 -26
0 -30 -5 -40 -47 -16 -63 -66 -174 -96 -211 -77 -99 -159 -157 -240 -169 -138
-20 -255 12 -339 94 -98 96 -146 227 -171 471 l-7 62 84 41 c46 22 90 44 98
49 8 4 32 16 53 26 20 10 63 44 94 76 l56 57 -74 -24 c-41 -13 -123 -40 -184
-59 -60 -20 -113 -36 -118 -36 -4 0 -5 39 -3 87 5 79 8 104 20 173 35 194 121
330 246 388 77 36 228 41 321 11 119 -39 214 -139 225 -237 5 -47 -16 -73 -41
-52 -8 7 -15 18 -15 25 0 50 -97 93 -167 73 -94 -26 -140 -146 -94 -242 51
-104 212 -125 307 -39 49 44 69 94 70 178 1 44 -2 89 -6 100 -16 40 -23 60
-24 67 -1 4 -7 13 -13 20 -7 6 -13 16 -13 20 0 14 -74 79 -115 101 -37 20 -94
41 -140 53 -71 17 -222 24 -300 12z"/>
<path d="M9036 7743 c-1 -1 -24 -5 -52 -8 -27 -3 -62 -8 -79 -11 -24 -4 -152
-10 -297 -14 -12 0 -18 -8 -18 -23 0 -23 2 -23 110 -22 61 1 111 -1 111 -4 1
-4 2 -313 3 -688 l1 -683 -45 -1 c-157 -2 -165 -3 -165 -24 0 -17 7 -20 41
-21 23 -1 46 -4 52 -8 6 -3 13 -2 17 3 3 6 15 7 28 2 12 -5 31 -5 42 -1 11 4
24 5 28 3 5 -3 55 -5 110 -4 56 1 108 1 115 1 25 0 48 0 96 0 27 0 51 -2 54
-4 2 -3 15 -1 28 4 13 5 26 6 28 1 3 -4 19 -6 36 -3 24 3 30 9 30 29 0 24 -1
24 -82 23 -46 -1 -93 -2 -105 -1 l-23 1 0 730 0 729 -31 -2 c-17 -1 -32 -3
-33 -4z"/>
<path d="M672 6354 c-341 -90 -585 -384 -585 -704 0 -37 13 -131 19 -141 3 -5
7 -18 9 -30 6 -30 56 -130 80 -158 104 -125 201 -186 350 -220 92 -22 288 -19
327 5 4 3 20 -9 34 -26 15 -17 38 -37 53 -44 32 -16 96 -15 137 3 30 12 74 60
78 84 1 7 5 17 8 23 7 10 3 53 -7 81 -2 7 14 30 37 50 126 116 197 226 237
371 24 87 21 66 21 162 l0 81 183 -6 c100 -4 238 -8 307 -10 270 -8 519 -16
602 -19 57 -3 90 0 96 8 5 6 38 65 72 131 34 66 67 126 72 133 6 6 8 12 5 12
-3 0 1 12 8 27 11 20 11 29 3 34 -7 4 -16 5 -21 2 -4 -3 -54 -6 -110 -8 -146
-5 -493 -18 -817 -30 -85 -4 -198 -8 -250 -10 -52 -2 -131 -4 -176 -5 l-81 -2
-49 48 c-69 69 -91 86 -154 116 -94 45 -158 60 -280 63 -98 4 -129 0 -208 -21z
m293 -176 c265 -58 386 -313 268 -566 -93 -200 -305 -334 -533 -335 -93 -1
-129 6 -205 42 -161 74 -243 240 -207 417 13 68 68 194 84 194 4 0 8 5 8 11 0
29 165 167 220 184 14 4 27 11 30 14 3 4 37 16 75 27 80 24 187 29 260 12z"/>
<path d="M7199 5285 c-3 -2 -31 -7 -64 -11 -32 -3 -68 -8 -79 -10 -24 -4 -214
-16 -296 -18 -49 -1 -55 -3 -58 -23 -3 -22 0 -23 65 -24 37 0 88 -1 113 -2
l45 -2 1 -1052 1 -1053 -51 -1 c-28 0 -72 0 -97 1 -72 2 -88 -36 -22 -53 13
-3 26 -1 29 4 3 5 10 6 16 3 14 -9 113 -8 127 1 6 3 11 3 11 -2 0 -9 78 -9 86
0 3 3 18 2 33 -3 16 -4 34 -4 42 0 7 5 20 5 28 1 9 -4 27 -5 41 -1 14 3 44 3
66 0 23 -4 51 -3 62 1 12 5 24 4 27 -2 4 -5 13 -6 22 0 9 5 29 5 44 1 30 -9
44 6 33 35 -5 11 -26 14 -107 13 l-102 -2 0 375 c1 206 4 401 8 434 7 55 10
71 21 130 23 113 68 249 90 274 9 10 16 22 16 27 0 12 53 68 96 100 74 57 199
74 288 40 75 -29 136 -116 151 -216 16 -106 18 -160 22 -647 l4 -513 -73 -1
c-40 -1 -88 0 -105 1 -29 1 -33 -1 -33 -25 0 -14 4 -24 9 -20 5 3 12 1 15 -4
4 -6 18 -6 36 -1 17 5 30 5 30 1 0 -4 20 -5 45 -1 25 4 45 4 45 1 0 -3 42 -5
92 -3 51 2 99 3 106 2 21 0 45 0 96 0 27 0 51 -2 54 -4 2 -3 14 -1 27 4 13 5
26 6 29 3 8 -8 101 -7 115 1 5 4 9 15 8 26 -1 17 -9 19 -87 19 -47 0 -94 0
-105 0 -20 1 -20 8 -21 464 0 533 -4 596 -45 726 -63 200 -178 285 -398 295
-215 10 -408 -103 -488 -285 -12 -26 -26 -50 -32 -53 -8 -5 -11 136 -11 523 0
292 -4 531 -8 531 -5 0 -11 -2 -13 -5z"/>
<path d="M9997 5284 c-4 -4 -52 -12 -122 -20 -95 -11 -123 -12 -238 -14 -85
-2 -110 -5 -114 -17 -10 -26 11 -32 120 -34 l107 -1 0 -1054 0 -1054 -32 -1
c-18 0 -60 0 -93 0 -78 0 -94 -5 -88 -28 5 -21 48 -32 79 -20 11 3 27 3 36 -2
10 -6 19 -5 23 1 3 5 15 6 28 1 12 -5 31 -5 42 -1 11 4 24 5 28 3 5 -3 55 -5
110 -4 56 1 108 1 115 1 25 0 48 0 96 0 27 0 51 -2 54 -4 2 -3 14 -1 27 4 13
5 26 5 32 -1 14 -14 45 13 38 34 -6 14 -21 17 -109 15 l-101 -2 0 373 c0 241
3 375 10 381 5 4 28 10 50 14 22 3 51 8 65 11 49 12 143 12 179 1 71 -21 134
-111 157 -221 3 -16 8 -115 10 -220 5 -207 17 -275 61 -333 47 -62 127 -96
218 -93 135 6 175 15 168 40 -4 15 -12 17 -49 13 -39 -4 -47 -1 -69 22 -14 15
-25 30 -26 34 0 4 -3 16 -6 27 -2 11 -6 99 -8 195 -4 205 -16 305 -46 386 -46
122 -163 193 -326 197 -36 1 -27 11 30 36 172 74 268 201 269 356 1 110 -49
199 -136 244 -92 47 -221 30 -295 -40 -92 -87 -68 -260 42 -309 120 -53 254
33 240 154 -6 53 -25 82 -70 104 -56 27 -51 65 8 58 40 -5 52 -10 73 -28 11
-10 23 -18 26 -18 4 0 17 -21 30 -47 32 -63 35 -158 8 -222 -32 -79 -127 -166
-218 -201 -19 -7 -39 -17 -45 -21 -8 -6 -73 -25 -150 -45 -44 -11 -168 -34
-183 -34 -16 0 -17 51 -17 678 1 372 -1 684 -3 693 -3 13 -26 22 -35 13z"/>
<path d="M8891 5175 c-53 -17 -88 -48 -112 -100 -36 -81 -12 -179 57 -231 33
-26 45 -29 109 -29 60 0 77 4 108 25 116 80 106 258 -19 323 -44 23 -94 27
-143 12z"/>
<path d="M5875 4568 c-104 -15 -166 -34 -235 -71 -52 -28 -136 -95 -154 -121
-8 -13 -22 -30 -30 -39 -9 -8 -27 -36 -41 -63 -14 -26 -29 -52 -33 -58 -16
-22 -59 -169 -70 -241 -9 -55 -9 -319 0 -380 21 -140 76 -287 138 -370 41 -55
143 -146 191 -170 168 -86 386 -104 524 -45 25 11 45 17 45 14 0 -10 95 60
130 96 67 67 125 158 150 235 7 22 17 46 23 53 5 6 7 12 4 12 -3 0 -1 14 5 31
8 25 8 33 -3 40 -33 21 -46 10 -64 -56 -9 -36 -21 -68 -26 -71 -5 -3 -9 -12
-9 -20 0 -27 -81 -143 -131 -188 -66 -60 -142 -88 -239 -88 -144 -1 -249 56
-327 177 -32 49 -78 175 -87 238 -4 27 -10 59 -13 70 -3 12 -7 103 -8 202 -6
338 43 529 168 655 68 69 133 94 253 97 145 4 238 -29 315 -110 61 -65 96
-171 64 -197 -12 -10 -18 -10 -30 0 -8 7 -15 18 -15 25 0 50 -97 93 -167 73
-131 -36 -153 -240 -33 -307 112 -63 249 -15 300 105 26 60 19 211 -11 250 -5
6 -7 13 -4 16 3 3 -1 11 -10 18 -8 7 -15 16 -15 21 0 15 -73 79 -115 102 -37
20 -94 41 -140 53 -71 17 -222 24 -300 12z"/>
<path d="M9037 4544 c-3 -3 -82 -15 -132 -20 -22 -2 -96 -6 -165 -9 -69 -2
-131 -4 -137 -5 -7 0 -13 -10 -13 -23 0 -22 2 -23 112 -22 l113 0 0 -687 0
-688 -45 -1 c-157 -2 -165 -3 -165 -24 0 -17 7 -20 41 -21 23 -1 46 -4 52 -8
6 -3 13 -2 17 3 3 6 15 7 28 2 12 -5 31 -5 42 -1 11 4 24 5 28 3 5 -3 60 -4
123 -4 63 1 122 2 132 1 19 0 108 1 132 1 8 0 20 0 25 -1 6 -1 27 -2 48 -1 33
1 37 4 37 26 0 25 -1 25 -77 24 -43 0 -90 0 -105 0 l-28 1 0 730 0 730 -30 -2
c-17 -1 -32 -3 -33 -4z"/>
</g>
</svg>
